<svg width="32" height="34" viewBox="0 0 32 34" fill="none" xmlns="http://www.w3.org/2000/svg">
<g clip-path="url(#clip0_110_10)">
<path d="M16.6869 33.093C19.9502 33.0745 23.1348 32.0887 25.8379 30.2603C28.541 28.4319 30.6412 25.843 31.8729 22.821C33.1046 19.799 33.4126 16.4796 32.7578 13.2826C32.103 10.0856 30.5148 7.15449 28.1942 4.86005C25.8736 2.56561 22.9247 1.01083 19.7205 0.392341C16.5162 -0.226152 13.2005 0.119413 10.1927 1.38534C7.18485 2.65126 4.61993 4.78069 2.82231 7.50434C1.02468 10.228 0.0750837 13.4235 0.0935915 16.6869C0.123178 21.0614 1.88686 25.2455 4.99767 28.3212C8.10848 31.397 12.3123 33.1131 16.6869 33.093ZM16.5085 1.64041C19.4659 1.62364 22.3619 2.48421 24.8302 4.11331C27.2985 5.74241 29.2283 8.06686 30.3755 10.7927C31.5228 13.5186 31.8359 16.5234 31.2754 19.4273C30.7149 22.3311 29.3059 25.0036 27.2266 27.1066C25.1472 29.2097 22.491 30.6489 19.5937 31.2423C16.6964 31.8357 13.6882 31.5567 10.9495 30.4404C8.21075 29.3242 5.86456 27.4209 4.20757 24.9712C2.55058 22.5215 1.65721 19.6355 1.64044 16.6781C1.62273 12.7138 3.1781 8.90429 5.96538 6.08522C8.75266 3.26615 12.5443 1.66767 16.5085 1.64041Z" fill="black"/>
<path d="M18.1504 23.8343C18.2978 23.97 18.4921 24.0433 18.6925 24.0386C18.8928 24.034 19.0835 23.9517 19.2244 23.8092C19.3653 23.6667 19.4454 23.4751 19.4478 23.2747C19.4502 23.0743 19.3748 22.8808 19.2373 22.735L13.0459 16.6134L19.1675 10.422C19.2431 10.3508 19.3035 10.2651 19.3453 10.1699C19.387 10.0748 19.4091 9.97228 19.4104 9.86842C19.4116 9.76457 19.3919 9.66152 19.3525 9.56544C19.313 9.46935 19.2547 9.3822 19.1808 9.30917C19.1069 9.23614 19.0191 9.17874 18.9226 9.14039C18.8261 9.10204 18.7228 9.08352 18.619 9.08594C18.5151 9.08836 18.4128 9.11167 18.3182 9.15448C18.2236 9.19729 18.1385 9.25872 18.0682 9.33511L11.4032 16.0761C11.2591 16.222 11.1789 16.419 11.1801 16.624C11.1812 16.8289 11.2637 17.0251 11.4094 17.1693L18.1504 23.8343Z" fill="black"/>
</g>
<defs>
<clipPath id="clip0_110_10">
<rect width="33" height="33" fill="white" transform="translate(33.1866 32.9995) rotate(179.675)"/>
</clipPath>
</defs>
</svg>
