<svg width="33" height="33" viewBox="0 0 33 33" fill="none" xmlns="http://www.w3.org/2000/svg">
<g clip-path="url(#clip0_109_7)">
<path d="M16.5 0C13.2366 0 10.0465 0.967708 7.3331 2.78075C4.61969 4.59379 2.50484 7.17074 1.256 10.1857C0.00714914 13.2007 -0.319606 16.5183 0.31705 19.719C0.953706 22.9197 2.52518 25.8597 4.83275 28.1673C7.14031 30.4748 10.0803 32.0463 13.281 32.683C16.4817 33.3196 19.7993 32.9929 22.8143 31.744C25.8293 30.4952 28.4062 28.3803 30.2193 25.6669C32.0323 22.9535 33 19.7634 33 16.5C32.9952 12.1254 31.2553 7.93133 28.162 4.83801C25.0687 1.7447 20.8746 0.00477689 16.5 0ZM16.5 31.4531C13.5426 31.4531 10.6515 30.5761 8.1925 28.9331C5.73347 27.29 3.81689 24.9546 2.68512 22.2223C1.55335 19.49 1.25723 16.4834 1.8342 13.5828C2.41117 10.6822 3.83532 8.01778 5.92655 5.92654C8.01778 3.83531 10.6822 2.41116 13.5828 1.8342C16.4834 1.25723 19.49 1.55335 22.2223 2.68511C24.9546 3.81688 27.29 5.73346 28.9331 8.19249C30.5761 10.6515 31.4531 13.5426 31.4531 16.5C31.4484 20.4643 29.8714 24.265 27.0682 27.0682C24.265 29.8714 20.4644 31.4483 16.5 31.4531Z" fill="black"/>
<path d="M14.9841 9.25031C14.8375 9.11369 14.6435 9.03931 14.4432 9.04285C14.2428 9.04638 14.0516 9.12755 13.9099 9.26926C13.7682 9.41097 13.687 9.60215 13.6835 9.80252C13.6799 10.0029 13.7543 10.1968 13.8909 10.3434L20.0475 16.5L13.8909 22.6566C13.815 22.7274 13.754 22.8128 13.7117 22.9076C13.6695 23.0025 13.6467 23.1049 13.6449 23.2088C13.6431 23.3126 13.6622 23.4158 13.7011 23.5121C13.74 23.6084 13.7979 23.6959 13.8713 23.7693C13.9448 23.8428 14.0322 23.9007 14.1285 23.9396C14.2249 23.9785 14.328 23.9976 14.4319 23.9957C14.5357 23.9939 14.6381 23.9712 14.733 23.9289C14.8279 23.8866 14.9133 23.8257 14.9841 23.7497L21.6872 17.0466C21.832 16.9015 21.9134 16.705 21.9134 16.5C21.9134 16.295 21.832 16.0985 21.6872 15.9534L14.9841 9.25031Z" fill="black"/>
</g>
<defs>
<clipPath id="clip0_109_7">
<rect width="33" height="33" fill="white"/>
</clipPath>
</defs>
</svg>
